<?xml version="1.0" standalone="no"?>
<!DOCTYPE svg PUBLIC "-//W3C//DTD SVG 20010904//EN"
 "http://www.w3.org/TR/2001/REC-SVG-20010904/DTD/svg10.dtd">
<svg version="1.0" xmlns="http://www.w3.org/2000/svg"
 width="260.000000pt" height="260.000000pt" viewBox="0 0 260.000000 260.000000"
 preserveAspectRatio="xMidYMid meet">
<metadata>
Created by potrace 1.11, written by Peter Selinger 2001-2013
</metadata>
<g transform="translate(0.000000,260.000000) scale(0.100000,-0.100000)"
fill="#000000" stroke="none">
<path d="M947 2504 c-1 -1 -24 -4 -52 -7 -236 -25 -444 -147 -599 -351 -80
-105 -148 -249 -171 -361 -26 -133 -34 -278 -20 -382 28 -207 143 -381 298
-453 158 -74 365 -56 572 47 95 48 124 72 127 106 l3 32 87 0 c48 0 89 2 91 5
3 3 8 37 12 75 3 39 8 79 10 90 2 11 7 49 10 85 10 119 17 164 39 256 l22 90
-267 -2 c-242 -2 -271 -4 -311 -22 -42 -18 -81 -61 -116 -128 -11 -21 -11 -21
46 -7 33 8 138 17 250 20 220 7 198 19 183 -102 -5 -38 -12 -97 -16 -130 -3
-33 -8 -69 -10 -80 -2 -11 -4 -37 -4 -57 -1 -34 -6 -40 -72 -83 -108 -72 -192
-99 -314 -99 -128 1 -192 24 -274 99 -83 78 -137 188 -157 327 -6 42 -6 243 0
286 14 97 19 120 38 180 104 339 367 516 678 456 155 -29 252 -123 219 -211
-7 -20 -5 -23 15 -23 33 0 52 26 111 154 l53 115 -46 15 c-71 23 -161 44 -222
51 -50 6 -208 13 -213 9z"/>
<path d="M2033 2493 c-244 -45 -400 -218 -388 -432 5 -87 41 -154 131 -242 94
-92 80 -79 198 -174 197 -158 268 -256 272 -379 1 -33 -4 -76 -12 -93 -7 -18
-10 -34 -6 -36 4 -2 29 -3 57 -3 45 1 52 5 73 36 33 49 55 135 55 215 0 57 -6
82 -31 135 -47 101 -73 130 -286 309 -256 214 -301 272 -298 382 3 137 91 206
263 207 132 0 267 -72 270 -145 2 -37 2 -32 -6 -80 -6 -41 -6 -43 19 -43 32 0
43 17 106 159 l49 111 -37 19 c-115 58 -289 80 -429 54z"/>
<path d="M1497 1203 c-48 -31 -85 -58 -82 -61 3 -3 52 -7 109 -7 57 -1 109 -5
115 -10 9 -5 8 2 -2 21 -8 16 -20 48 -26 72 -7 23 -15 42 -19 41 -4 0 -47 -25
-95 -56z"/>
<path d="M1143 1087 c-4 -7 -7 -857 -4 -949 1 -17 19 -18 236 -18 264 0 282 4
347 67 66 64 69 90 66 440 -3 274 -5 312 -21 341 -28 51 -58 82 -102 105 -37
19 -58 21 -278 22 -131 0 -241 -3 -244 -8z m347 -107 c23 -6 47 -22 59 -38 19
-27 20 -46 21 -331 0 -267 -1 -305 -16 -331 -23 -39 -53 -50 -132 -50 l-67 0
1 377 c1 208 2 378 3 379 8 6 102 2 131 -6z"/>
<path d="M1850 1013 c-1 -46 -1 -261 -1 -478 0 -217 0 -400 1 -405 0 -7 81
-10 238 -10 261 1 294 8 347 67 50 55 59 83 59 178 0 97 -17 146 -66 192 -27
25 -102 55 -114 45 -4 -4 -4 -2 -1 4 4 6 20 14 36 17 47 10 98 48 123 92 30
54 33 202 5 253 -28 51 -58 82 -102 105 -37 19 -58 20 -282 22 l-243 1 0 -83z
m377 -41 c42 -23 53 -55 54 -159 0 -114 -28 -144 -143 -150 -50 -2 -68 0 -69
9 -4 33 -5 304 -2 310 6 12 136 3 160 -10z m25 -450 c25 -25 37 -104 27 -186
-4 -38 -12 -55 -37 -77 -29 -26 -39 -29 -105 -29 l-72 0 0 158 0 157 30 5 c55
9 134 -5 157 -28z"/>
<path d="M1800 1003 c0 -4 5 -15 10 -23 8 -13 10 -13 10 2 0 9 -4 20 -10 23
-5 3 -10 3 -10 -2z"/>
<path d="M1080 808 c-8 -51 -14 -95 -15 -98 -1 -3 -5 -21 -9 -40 -14 -61 -61
-154 -94 -187 -50 -49 -122 -72 -217 -69 -125 4 -213 52 -281 156 l-26 39 -57
-44 c-31 -25 -69 -56 -84 -69 l-28 -23 39 -35 c90 -81 201 -122 334 -121 161
1 297 58 416 173 l42 41 0 184 c-1 102 -2 185 -4 185 -1 0 -8 -42 -16 -92z"/>
</g>
</svg>
